<svg width="44" height="44" viewBox="0 0 44 44" fill="none" xmlns="http://www.w3.org/2000/svg">
<mask id="mask0_29_34" style="mask-type:alpha" maskUnits="userSpaceOnUse" x="0" y="0" width="44" height="44">
<circle cx="22" cy="22" r="22" fill="#DEDEE8"/>
</mask>
<g mask="url(#mask0_29_34)">
<circle opacity="0.1" cx="22" cy="22" r="22" fill="#6A8071"/>
<path d="M15.0551 34.2865C15.0551 34.2865 9.77551 35.3482 9.55237 30.9024C9.45588 28.9783 9.1964 29.2792 7.51392 27.6566C5.83145 26.034 5.83145 25.3732 6.19226 23.8709C6.55307 22.3686 8.06792 21.8525 7.3192 20.4643C6.3328 18.636 6.63524 15.5105 8.77853 14.2922C10.8505 13.1143 11.0837 13.1302 11.0837 11.9224C11.0837 10.345 12.7215 7.80324 16.1005 8.06757C19.0082 8.29468 18.5555 6.8805 20.6162 6.25051C24.453 5.07709 26.3121 8.40019 27.634 8.52046C28.9559 8.64074 31.2435 8.66298 32.4046 10.4199C33.8445 12.5989 32.5724 14.3772 34.3752 14.5574C36.1779 14.7376 37.9807 16.3 37.9205 17.9225C37.8604 19.5451 36.8989 20.9269 37.5599 21.6481C38.221 22.3693 38.4772 26.6398 35.8098 27.4572C32.1647 28.574 35.8098 33.9702 29.1059 33.8702C23.0789 33.7799 15.0551 34.2865 15.0551 34.2865Z" fill="#3F2037"/>
<path d="M36.7361 38.4376H6.51404C6.51404 38.4376 6.81758 34.6669 8.64236 33.9378C9.01969 33.7867 9.64748 33.4922 10.4057 33.1206C10.5105 33.0688 10.6185 33.016 10.7279 32.9615H10.7301C10.9237 32.8657 11.1235 32.7659 11.3295 32.6624C12.7994 31.9254 14.5282 31.028 15.8743 30.3231L16.3283 30.0854C17.3953 29.5246 18.1286 29.1347 18.1286 29.1347L18.3594 29.1864C20.5077 29.6677 22.7377 29.65 24.8781 29.1347C24.8781 29.1347 25.6387 29.5263 26.7425 30.0887C26.7566 30.0962 26.7703 30.103 26.7846 30.1107C27.4507 30.4506 28.2384 30.8509 29.0592 31.2634C31.2635 32.3734 33.6958 33.5744 34.608 33.9394C36.4332 34.6669 36.7361 38.4376 36.7361 38.4376Z" fill="#0075CF"/>
<path d="M21.9247 36.4252C21.2761 36.4257 20.6301 36.3438 20.0021 36.1816C19.2515 35.9995 18.5383 35.688 17.8947 35.261C17.8764 35.2486 17.8607 35.2325 17.8487 35.2139C17.8367 35.1953 17.8286 35.1744 17.8248 35.1525C17.821 35.1307 17.8217 35.1083 17.8267 35.0867C17.8318 35.0651 17.8412 35.0448 17.8543 35.0269C17.8673 35.009 17.8839 34.9939 17.9029 34.9825C17.922 34.9712 17.9431 34.9638 17.9651 34.9607C17.9871 34.9577 18.0094 34.9591 18.0308 34.9649C18.0522 34.9708 18.0722 34.9808 18.0897 34.9945C18.7051 35.397 19.3847 35.6915 20.0993 35.8655C21.7821 36.2859 23.5578 36.1211 25.1346 35.3983C25.1546 35.3884 25.1764 35.3827 25.1987 35.3814C25.2211 35.3802 25.2434 35.3836 25.2644 35.3912C25.2853 35.3989 25.3046 35.4107 25.3208 35.426C25.3371 35.4413 25.3501 35.4598 25.3591 35.4803C25.368 35.5007 25.3727 35.5228 25.3729 35.5451C25.3731 35.5675 25.3687 35.5896 25.3601 35.6102C25.3514 35.6308 25.3387 35.6495 25.3227 35.665C25.3066 35.6806 25.2876 35.6927 25.2667 35.7007C24.2155 36.1729 23.0771 36.4197 21.9247 36.4252Z" fill="#0056A8"/>
<path d="M26.7433 30.0876C26.3869 31.6374 25.2377 34.5323 21.6251 34.5323C17.7796 34.5323 16.6429 31.4443 16.3284 30.084C17.3954 29.5232 18.1287 29.1333 18.1287 29.1333L18.3595 29.1851C20.5078 29.6663 22.7378 29.6486 24.8782 29.1333C24.8782 29.1333 25.6395 29.5252 26.7433 30.0876Z" fill="#FFB8A1"/>
<path d="M12.5902 38.4376H6.51404C6.51404 38.4376 6.81758 34.6669 8.64236 33.9378C9.01969 33.7866 9.64748 33.4921 10.4057 33.1205C10.5105 33.0688 10.6185 33.0159 10.7279 32.9615H10.7301C10.9237 32.8656 11.1235 32.7659 11.3295 32.6624C11.7842 33.9285 12.5373 36.3269 12.5902 38.4376Z" fill="#FFB8A1"/>
<path d="M30.6615 38.4376H36.7361C36.7361 38.4376 36.4325 34.6669 34.608 33.9378C34.2304 33.7866 33.6029 33.4921 32.8447 33.1205C32.7395 33.0687 32.632 33.0157 32.5222 32.9615H32.52C32.3264 32.8656 32.1266 32.7659 31.9206 32.6624C31.4673 33.9285 30.7141 36.3269 30.6615 38.4376Z" fill="#FFB8A1"/>
<path d="M25.033 29.9032C25.033 29.9032 24.4402 31.7663 21.7167 31.7663C18.5401 31.7663 17.7925 30.0726 17.7925 30.0726C18.0416 29.4171 18.2404 28.7436 18.3872 28.0579C18.5696 27.2323 18.6549 26.3882 18.6414 25.5428L24.2221 25.3225C24.2737 25.795 24.3576 26.3515 24.4526 26.9112C24.7043 28.3967 25.033 29.9032 25.033 29.9032Z" fill="#FFB8A1"/>
<path d="M24.4522 26.9107C23.5874 27.5121 21.6972 28.4073 18.3868 28.0584C18.5692 27.2328 18.6545 26.3887 18.641 25.5432L24.2218 25.323C24.2733 25.7941 24.3566 26.3506 24.4522 26.9107Z" fill="#3F2037"/>
<path d="M27.4361 18.5824C27.4361 18.5824 28.7434 16.803 29.7604 17.8554C30.7775 18.9079 28.8161 22.5766 27.0365 21.7777L27.4361 18.5824Z" fill="#FFB8A1"/>
<path d="M26.8957 21.7424C26.3589 22.002 25.9327 22.445 25.6939 22.9914C25.4552 23.5378 25.4197 24.1515 25.5938 24.7218C25.768 25.2921 26.1403 25.7812 26.6436 26.101C27.1468 26.4208 27.7479 26.5501 28.3381 26.4655C28.9283 26.3809 29.4689 26.0881 29.8621 25.6399C30.2553 25.1917 30.4753 24.6176 30.4823 24.0214C30.4894 23.4252 30.283 22.8461 29.9004 22.3887C29.5178 21.9313 28.9843 21.6259 28.3963 21.5274C28.2828 21.5081 28.1681 21.4969 28.0531 21.4939C28.0613 21.3978 28.0813 21.303 28.1125 21.2118C28.302 21.2202 28.4901 21.2483 28.6738 21.2957C29.3148 21.4597 29.8763 21.8468 30.2577 22.3874C30.6391 22.9281 30.8154 23.5869 30.7549 24.2458C30.6945 24.9046 30.4013 25.5204 29.9279 25.9826C29.4545 26.4448 28.8319 26.7233 28.1718 26.768C27.5117 26.8127 26.8573 26.6207 26.3259 26.2265C25.7945 25.8323 25.421 25.2617 25.2723 24.617C25.1235 23.9723 25.2094 23.2957 25.5144 22.7086C25.8195 22.1215 26.3237 21.6623 26.9367 21.4133L26.8957 21.7424Z" fill="#FFF7F1"/>
<path d="M27.9621 20.6853C27.9579 20.6857 27.9537 20.6857 27.9495 20.6853C27.9258 20.682 27.9044 20.6695 27.8899 20.6504C27.8755 20.6313 27.8692 20.6073 27.8724 20.5836C28.0123 19.7499 28.4508 18.9957 29.106 18.4616C29.1251 18.447 29.1492 18.4406 29.173 18.4438C29.1968 18.4469 29.2184 18.4594 29.233 18.4785C29.2476 18.4976 29.254 18.5216 29.2508 18.5455C29.2477 18.5693 29.2352 18.5909 29.2161 18.6055C28.6026 19.1137 28.1898 19.8236 28.0515 20.6082C28.0484 20.6297 28.0376 20.6493 28.0212 20.6635C28.0048 20.6776 27.9838 20.6854 27.9621 20.6853Z" fill="#FF8A8A"/>
<path d="M28.2359 19.7974C28.2195 19.7973 28.2034 19.7928 28.1894 19.7843C28.1754 19.7759 28.1639 19.7638 28.1562 19.7493C28.1485 19.7348 28.1449 19.7185 28.1457 19.7022C28.1466 19.6858 28.1519 19.67 28.161 19.6564C28.3764 19.3379 28.9606 19.37 28.9853 19.372C29.0092 19.3735 29.0316 19.3844 29.0474 19.4023C29.0633 19.4203 29.0714 19.4438 29.07 19.4677C29.0685 19.4916 29.0576 19.514 29.0396 19.5299C29.0217 19.5458 28.9982 19.5539 28.9742 19.5524C28.8337 19.544 28.4414 19.5643 28.3108 19.7575C28.3025 19.7697 28.2913 19.7798 28.2783 19.7867C28.2652 19.7937 28.2507 19.7973 28.2359 19.7974Z" fill="#FF8A8A"/>
<path d="M16.0961 18.5824C16.0961 18.5824 14.7888 16.803 13.7717 17.8554C12.7547 18.9079 14.7161 22.5766 16.4957 21.7777L16.0961 18.5824Z" fill="#FFB8A1"/>
<path d="M16.4506 21.4133C17.0635 21.6623 17.5677 22.1215 17.8726 22.7086C18.1776 23.2956 18.2634 23.9721 18.1147 24.6168C17.966 25.2614 17.5925 25.8319 17.0612 26.2261C16.5298 26.6202 15.8755 26.8122 15.2154 26.7675C14.5554 26.7228 13.9329 26.4444 13.4595 25.9822C12.9862 25.5201 12.693 24.9044 12.6325 24.2456C12.572 23.5868 12.7483 22.928 13.1296 22.3874C13.5109 21.8468 14.0724 21.4598 14.7133 21.2957C14.897 21.2484 15.0852 21.2202 15.2747 21.2118C15.306 21.303 15.326 21.3978 15.3342 21.4939C15.2191 21.4969 15.1043 21.5081 14.9908 21.5274C14.4027 21.6259 13.8692 21.9313 13.4867 22.3887C13.1041 22.8461 12.8977 23.4252 12.9047 24.0214C12.9117 24.6176 13.1317 25.1917 13.525 25.6399C13.9182 26.0881 14.4587 26.3809 15.049 26.4655C15.6392 26.5501 16.2402 26.4208 16.7435 26.101C17.2467 25.7812 17.6191 25.2921 17.7932 24.7218C17.9674 24.1515 17.9319 23.5378 17.6931 22.9914C17.4544 22.445 17.0281 22.002 16.4913 21.7424L16.4506 21.4133Z" fill="#FFF7F1"/>
<path d="M16.4506 21.4133C17.0635 21.6623 17.5677 22.1215 17.8726 22.7086C18.1776 23.2956 18.2634 23.9721 18.1147 24.6168C17.966 25.2614 17.5925 25.8319 17.0612 26.2261C16.5298 26.6202 15.8755 26.8122 15.2154 26.7675C14.5554 26.7228 13.9329 26.4444 13.4595 25.9822C12.9862 25.5201 12.693 24.9044 12.6325 24.2456C12.572 23.5868 12.7483 22.928 13.1296 22.3874C13.5109 21.8468 14.0724 21.4598 14.7133 21.2957C14.897 21.2484 15.0852 21.2202 15.2747 21.2118C15.306 21.303 15.326 21.3978 15.3342 21.4939C15.2191 21.4969 15.1043 21.5081 14.9908 21.5274C14.4027 21.6259 13.8692 21.9313 13.4867 22.3887C13.1041 22.8461 12.8977 23.4252 12.9047 24.0214C12.9117 24.6176 13.1317 25.1917 13.525 25.6399C13.9182 26.0881 14.4587 26.3809 15.049 26.4655C15.6392 26.5501 16.2402 26.4208 16.7435 26.101C17.2467 25.7812 17.6191 25.2921 17.7932 24.7218C17.9674 24.1515 17.9319 23.5378 17.6931 22.9914C17.4544 22.445 17.0281 22.002 16.4913 21.7424L16.4506 21.4133Z" fill="#FFF7F1"/>
<path d="M15.5706 20.6853C15.5747 20.6857 15.5789 20.6857 15.5831 20.6853C15.6068 20.682 15.6283 20.6695 15.6427 20.6504C15.6572 20.6313 15.6635 20.6073 15.6602 20.5836C15.5204 19.7499 15.0819 18.9957 14.4267 18.4616C14.4076 18.447 14.3835 18.4406 14.3597 18.4438C14.3359 18.4469 14.3143 18.4594 14.2997 18.4785C14.2851 18.4976 14.2786 18.5216 14.2818 18.5455C14.285 18.5693 14.2974 18.5909 14.3165 18.6055C14.93 19.1137 15.3428 19.8236 15.4811 20.6082C15.4843 20.6297 15.495 20.6493 15.5114 20.6635C15.5279 20.6776 15.5489 20.6854 15.5706 20.6853Z" fill="#FF8A8A"/>
<path d="M15.2968 19.7974C15.3132 19.7973 15.3292 19.7928 15.3433 19.7843C15.3573 19.7759 15.3688 19.7638 15.3764 19.7493C15.3841 19.7348 15.3877 19.7185 15.3869 19.7022C15.3861 19.6858 15.3808 19.67 15.3717 19.6564C15.1562 19.3379 14.5721 19.37 14.5474 19.372C14.5235 19.3735 14.5011 19.3844 14.4852 19.4023C14.4693 19.4203 14.4612 19.4438 14.4627 19.4677C14.4642 19.4916 14.4751 19.514 14.493 19.5299C14.511 19.5458 14.5345 19.5539 14.5584 19.5524C14.6989 19.544 15.0913 19.5643 15.2219 19.7575C15.2302 19.7697 15.2413 19.7798 15.2544 19.7867C15.2674 19.7937 15.282 19.7973 15.2968 19.7974Z" fill="#FF8A8A"/>
<path d="M28.0986 18.8706C28.0043 22.4922 26.0379 27.3954 21.716 27.2929C17.892 27.2033 15.993 23.5744 15.5307 20.2641C15.4919 19.9848 15.463 19.7072 15.4443 19.4348C15.076 14.099 17.1975 11.3673 21.7572 11.2182C22.0132 11.2097 22.2771 11.2097 22.5489 11.2182C23.0853 11.2738 23.6177 11.3626 24.1431 11.4839C27.2932 12.5161 28.1973 15.0631 28.0986 18.8706Z" fill="#FFB8A1"/>
<g opacity="0.5">
<g opacity="0.5">
<path opacity="0.5" d="M19.5611 21.0428C19.5611 21.4613 18.7901 21.799 17.8392 21.799C16.8883 21.799 16.1171 21.4604 16.1171 21.0428C16.1171 20.6251 16.888 20.2868 17.8392 20.2868C18.7904 20.2868 19.5611 20.6253 19.5611 21.0428Z" fill="#FF8A8A"/>
</g>
</g>
<g opacity="0.5">
<g opacity="0.5">
<path opacity="0.5" d="M27.6624 21.0428C27.6624 21.4613 26.8915 21.799 25.9405 21.799C24.9896 21.799 24.2186 21.4604 24.2186 21.0428C24.2186 20.6251 24.9896 20.2868 25.9405 20.2868C26.8915 20.2868 27.6624 20.6253 27.6624 21.0428Z" fill="#FF8A8A"/>
</g>
</g>
<path d="M19.2356 14.4792C18.1152 14.5643 18.452 15.8621 17.3489 16.4965C16.1374 17.193 16.2878 17.6102 16.581 18.5865C17.0165 20.037 15.5845 20.382 15.5845 20.382C15.5664 20.3441 15.5481 20.3049 15.5307 20.2652C15.492 19.9859 15.4631 19.7084 15.4444 19.4359C15.0761 14.099 16.7815 10.9889 21.7564 11.2182C22.3741 13.5552 20.7345 14.3653 19.2356 14.4792Z" fill="#3F2037"/>
<path d="M24.1832 14.0962C25.6727 14.0724 25.1524 15.6143 26.0322 16.3236C27.1195 17.2005 27.4761 16.8278 26.9984 18.2647C26.5045 19.7504 27.9235 20.382 27.9235 20.382C27.9418 20.3441 27.9599 20.3049 27.9775 20.2652C28.016 19.9859 28.0451 19.7084 28.0638 19.4359C28.4321 14.099 26.627 11.003 21.7518 11.2182C21.1359 13.5551 22.6803 14.1199 24.1832 14.0962Z" fill="#3F2037"/>
<path d="M20.2722 16.326C19.6878 16.3394 18.4135 16.4954 17.8401 17.5567C17.8401 17.5567 19.1569 16.9311 20.2589 16.998C20.3083 17.001 20.3577 16.993 20.4037 16.9747C20.4496 16.9564 20.491 16.9281 20.5247 16.892C20.5585 16.8558 20.5839 16.8127 20.599 16.7656C20.6142 16.7185 20.6188 16.6687 20.6125 16.6196C20.6021 16.5373 20.5615 16.4617 20.4987 16.4075C20.4358 16.3533 20.3551 16.3242 20.2722 16.326Z" fill="#3F2037"/>
<path d="M23.5076 16.326C24.092 16.3394 25.3663 16.4954 25.9395 17.5567C25.9395 17.5567 24.6227 16.9311 23.5208 16.998C23.4714 17.001 23.422 16.9931 23.376 16.9748C23.33 16.9565 23.2887 16.9282 23.2549 16.8921C23.2211 16.8559 23.1957 16.8128 23.1805 16.7657C23.1653 16.7186 23.1607 16.6687 23.1671 16.6196C23.1774 16.5372 23.218 16.4616 23.2809 16.4074C23.3438 16.3531 23.4246 16.3241 23.5076 16.326Z" fill="#3F2037"/>
<path d="M22.0615 22.4019C21.8274 22.395 21.5972 22.3402 21.3851 22.2409C21.3522 22.2266 21.3248 22.2021 21.3071 22.1709C21.2895 22.1398 21.2824 22.1037 21.287 22.0682L21.6324 19.4149C21.6381 19.3715 21.6607 19.332 21.6955 19.3053C21.7302 19.2785 21.7741 19.2667 21.8176 19.2723C21.861 19.2779 21.9005 19.3006 21.9272 19.3353C21.954 19.3701 21.9658 19.414 21.9602 19.4575L21.6311 21.984C21.7603 22.0482 21.9035 22.0789 22.0476 22.0734C22.1917 22.0679 22.3321 22.0263 22.456 21.9525C22.474 21.9395 22.4944 21.9302 22.516 21.9252C22.5376 21.9203 22.56 21.9197 22.5818 21.9235C22.6037 21.9274 22.6245 21.9356 22.6431 21.9477C22.6617 21.9598 22.6777 21.9755 22.6901 21.9939C22.7025 22.0123 22.711 22.033 22.7153 22.0547C22.7195 22.0765 22.7193 22.0989 22.7147 22.1206C22.7101 22.1423 22.7011 22.1628 22.6884 22.181C22.6757 22.1992 22.6594 22.2146 22.6406 22.2263C22.47 22.3426 22.268 22.4039 22.0615 22.4019Z" fill="#FF8A8A"/>
<path d="M21.7337 24.1557C21.5972 24.1557 21.4608 24.1478 21.3253 24.1322C20.8703 24.0819 20.4281 23.9498 20.0201 23.7421C19.9819 23.7207 19.9537 23.685 19.9417 23.6429C19.9297 23.6007 19.935 23.5555 19.9564 23.5173C19.9777 23.479 20.0134 23.4508 20.0556 23.4388C20.0977 23.4269 20.1429 23.4321 20.1812 23.4535C20.2607 23.4976 22.1502 24.5183 23.786 23.005C23.8183 22.9766 23.8605 22.962 23.9035 22.9642C23.9465 22.9664 23.9869 22.9853 24.0162 23.0169C24.0454 23.0485 24.0612 23.0902 24.0601 23.1333C24.059 23.1763 24.0412 23.2172 24.0105 23.2473C23.3975 23.833 22.5815 24.1586 21.7337 24.1557Z" fill="#FF8A8A"/>
<path d="M22.0216 25.1248C21.78 25.1242 21.5397 25.0904 21.3074 25.0241C21.2662 25.0106 21.2319 24.9814 21.212 24.9428C21.1921 24.9043 21.1882 24.8594 21.2011 24.818C21.214 24.7765 21.2427 24.7418 21.281 24.7214C21.3193 24.7009 21.3641 24.6963 21.4057 24.7087C21.4149 24.7115 22.1711 24.9393 22.7035 24.6382C22.7224 24.6253 22.7438 24.6165 22.7662 24.6122C22.7887 24.608 22.8117 24.6085 22.834 24.6137C22.8563 24.6188 22.8772 24.6285 22.8955 24.6422C22.9138 24.6559 22.9291 24.6732 22.9404 24.6931C22.9517 24.7129 22.9587 24.7349 22.961 24.7576C22.9634 24.7804 22.961 24.8033 22.954 24.8251C22.947 24.8468 22.9356 24.8669 22.9205 24.884C22.9054 24.9011 22.8868 24.9149 22.8661 24.9245C22.6064 25.0626 22.3156 25.1315 22.0216 25.1248Z" fill="#FF8A8A"/>
<path d="M19.7942 18.8649C19.8021 19.3262 19.6323 19.7019 19.4145 19.7068C19.1966 19.7116 19.0133 19.3398 19.0054 18.8786C18.9975 18.4173 19.1675 18.0402 19.3852 18.0364C19.6028 18.0327 19.7863 18.4036 19.7942 18.8649Z" fill="#3F2037"/>
<path d="M23.916 18.8649C23.9081 19.3261 24.0782 19.7019 24.2958 19.7068C24.5134 19.7116 24.6969 19.3398 24.7049 18.8785C24.7128 18.4173 24.543 18.0401 24.3251 18.0364C24.1072 18.0327 23.9251 18.4036 23.916 18.8649Z" fill="#3F2037"/>
</g>
</svg>
