<svg width="35" height="35" viewBox="0 0 35 35" fill="none" xmlns="http://www.w3.org/2000/svg">
<rect width="35" height="35" fill="white"/>
<g clip-path="url(#clip0_48_840)">
<path d="M18.6406 3.40541L22.741 11.7135L31.9095 13.0458C32.9528 13.1973 33.3694 14.4795 32.6145 15.2155L25.98 21.6823L27.5461 30.8138C27.7244 31.8529 26.6337 32.6453 25.7006 32.1547L17.4999 27.8434L9.29939 32.1547C8.36625 32.6453 7.27556 31.8529 7.45381 30.8138L9.01997 21.6823L2.38551 15.2154C1.63056 14.4795 2.04718 13.1974 3.09052 13.0457L12.259 11.7134L16.3593 3.40541C16.8259 2.45998 18.174 2.45998 18.6406 3.40541Z" fill="url(#paint0_linear_48_840)"/>
<path d="M22.7409 11.7135L18.6406 3.40541C18.4074 2.93272 17.9537 2.69635 17.5 2.69635V18.4257L22.7409 11.7135Z" fill="url(#paint1_linear_48_840)"/>
<path d="M25.98 21.6823L32.6144 15.2153C32.9869 14.8523 33.0737 14.3565 32.9413 13.9289L17.5 18.4256L25.98 21.6823Z" fill="url(#paint2_linear_48_840)"/>
<path d="M27.044 32.0549L17.5 18.4256V27.8434L25.7006 32.1547C26.1688 32.4009 26.6766 32.3239 27.044 32.0549Z" fill="url(#paint3_linear_48_840)"/>
<path d="M17.5 18.4256L9.01997 21.6823L7.45387 30.8138C7.36505 31.3314 7.59137 31.7878 7.95605 32.0549L17.5 18.4256Z" fill="url(#paint4_linear_48_840)"/>
<path d="M2.05859 13.929L17.4999 18.4256L12.259 11.7134L3.09049 13.0458C2.56186 13.1225 2.19458 13.4898 2.05859 13.929Z" fill="url(#paint5_linear_48_840)"/>
<path d="M9.01985 21.6823L2.38539 15.2154C2.01297 14.8524 1.92609 14.3565 2.0585 13.929L17.4998 18.4256L9.01985 21.6823Z" fill="url(#paint6_linear_48_840)"/>
</g>
<defs>
<linearGradient id="paint0_linear_48_840" x1="17.5005" y1="6.14924" x2="17.5005" y2="40.3542" gradientUnits="userSpaceOnUse">
<stop stop-color="#FFCF95"/>
<stop offset="0.427" stop-color="#FFC954"/>
<stop offset="1" stop-color="#FFC200"/>
</linearGradient>
<linearGradient id="paint1_linear_48_840" x1="25.5348" y1="10.5602" x2="15.1948" y2="10.5602" gradientUnits="userSpaceOnUse">
<stop stop-color="#FFC200" stop-opacity="0"/>
<stop offset="0.203" stop-color="#FFBB00" stop-opacity="0.203"/>
<stop offset="0.499" stop-color="#FFA700" stop-opacity="0.499"/>
<stop offset="0.852" stop-color="#FF8800" stop-opacity="0.852"/>
<stop offset="1" stop-color="#FF7800"/>
</linearGradient>
<linearGradient id="paint2_linear_48_840" x1="27.3013" y1="26.4025" x2="24.5628" y2="12.9171" gradientUnits="userSpaceOnUse">
<stop stop-color="#FFC200" stop-opacity="0"/>
<stop offset="0.203" stop-color="#FFBB00" stop-opacity="0.203"/>
<stop offset="0.499" stop-color="#FFA700" stop-opacity="0.499"/>
<stop offset="0.852" stop-color="#FF8800" stop-opacity="0.852"/>
<stop offset="1" stop-color="#FF7800"/>
</linearGradient>
<linearGradient id="paint3_linear_48_840" x1="14.0232" y1="33.4894" x2="24.7482" y2="22.7644" gradientUnits="userSpaceOnUse">
<stop stop-color="#FFC200" stop-opacity="0"/>
<stop offset="0.203" stop-color="#FFBB00" stop-opacity="0.203"/>
<stop offset="0.499" stop-color="#FFA700" stop-opacity="0.499"/>
<stop offset="0.852" stop-color="#FF8800" stop-opacity="0.852"/>
<stop offset="1" stop-color="#FF7800"/>
</linearGradient>
<linearGradient id="paint4_linear_48_840" x1="6.37507" y1="19.9265" x2="14.2803" y2="26.5401" gradientUnits="userSpaceOnUse">
<stop stop-color="#FFC200" stop-opacity="0"/>
<stop offset="0.203" stop-color="#FFBB00" stop-opacity="0.203"/>
<stop offset="0.499" stop-color="#FFA700" stop-opacity="0.499"/>
<stop offset="0.852" stop-color="#FF8800" stop-opacity="0.852"/>
<stop offset="1" stop-color="#FF7800"/>
</linearGradient>
<linearGradient id="paint5_linear_48_840" x1="12.301" y1="9.01736" x2="9.09761" y2="18.1109" gradientUnits="userSpaceOnUse">
<stop stop-color="#FFC200" stop-opacity="0"/>
<stop offset="0.203" stop-color="#FFBB00" stop-opacity="0.203"/>
<stop offset="0.499" stop-color="#FFA700" stop-opacity="0.499"/>
<stop offset="0.852" stop-color="#FF8800" stop-opacity="0.852"/>
<stop offset="1" stop-color="#FF7800"/>
</linearGradient>
<linearGradient id="paint6_linear_48_840" x1="24.3594" y1="9.96699" x2="0.824588" y2="19.9906" gradientUnits="userSpaceOnUse">
<stop stop-color="#FFC200" stop-opacity="0"/>
<stop offset="0.203" stop-color="#FFBB00" stop-opacity="0.203"/>
<stop offset="0.499" stop-color="#FFA700" stop-opacity="0.499"/>
<stop offset="0.852" stop-color="#FF8800" stop-opacity="0.852"/>
<stop offset="1" stop-color="#FF7800"/>
</linearGradient>
<clipPath id="clip0_48_840">
<rect width="31" height="31" fill="white" transform="translate(2 2)"/>
</clipPath>
</defs>
</svg>
